<svg id="visual" viewBox="0 0 900 100" width="900" height="100" xmlns="http://www.w3.org/2000/svg" xmlns:xlink="http://www.w3.org/1999/xlink" version="1.1"><rect x="0" y="0" width="900" height="100" fill="#ffffff"></rect><path d="M0 46L21.5 47.7C43 49.3 86 52.7 128.8 54.2C171.7 55.7 214.3 55.3 257.2 58.5C300 61.7 343 68.3 385.8 71.2C428.7 74 471.3 73 514.2 68.8C557 64.7 600 57.3 642.8 56.2C685.7 55 728.3 60 771.2 59.2C814 58.3 857 51.7 878.5 48.3L900 45L900 0L878.5 0C857 0 814 0 771.2 0C728.3 0 685.7 0 642.8 0C600 0 557 0 514.2 0C471.3 0 428.7 0 385.8 0C343 0 300 0 257.2 0C214.3 0 171.7 0 128.8 0C86 0 43 0 21.5 0L0 0Z" fill="#ffffff"></path><path d="M0 43L21.5 47.3C43 51.7 86 60.3 128.8 64.3C171.7 68.3 214.3 67.7 257.2 65.3C300 63 343 59 385.8 59.5C428.7 60 471.3 65 514.2 64.3C557 63.7 600 57.3 642.8 55.8C685.7 54.3 728.3 57.7 771.2 58.5C814 59.3 857 57.7 878.5 56.8L900 56L900 0L878.5 0C857 0 814 0 771.2 0C728.3 0 685.7 0 642.8 0C600 0 557 0 514.2 0C471.3 0 428.7 0 385.8 0C343 0 300 0 257.2 0C214.3 0 171.7 0 128.8 0C86 0 43 0 21.5 0L0 0Z" fill="#e6ebf6"></path><path d="M0 44L21.5 43.8C43 43.7 86 43.3 128.8 43C171.7 42.7 214.3 42.3 257.2 45.3C300 48.3 343 54.7 385.8 53.3C428.7 52 471.3 43 514.2 39.5C557 36 600 38 642.8 39.3C685.7 40.7 728.3 41.3 771.2 42.7C814 44 857 46 878.5 47L900 48L900 0L878.5 0C857 0 814 0 771.2 0C728.3 0 685.7 0 642.8 0C600 0 557 0 514.2 0C471.3 0 428.7 0 385.8 0C343 0 300 0 257.2 0C214.3 0 171.7 0 128.8 0C86 0 43 0 21.5 0L0 0Z" fill="#cdd8ed"></path><path d="M0 36L21.5 35.2C43 34.3 86 32.7 128.8 35.7C171.7 38.7 214.3 46.3 257.2 48.5C300 50.7 343 47.3 385.8 43.8C428.7 40.3 471.3 36.7 514.2 35.8C557 35 600 37 642.8 37.3C685.7 37.7 728.3 36.3 771.2 35.7C814 35 857 35 878.5 35L900 35L900 0L878.5 0C857 0 814 0 771.2 0C728.3 0 685.7 0 642.8 0C600 0 557 0 514.2 0C471.3 0 428.7 0 385.8 0C343 0 300 0 257.2 0C214.3 0 171.7 0 128.8 0C86 0 43 0 21.5 0L0 0Z" fill="#b4c5e4"></path><path d="M0 25L21.5 24.7C43 24.3 86 23.7 128.8 24.7C171.7 25.7 214.3 28.3 257.2 32.3C300 36.3 343 41.7 385.8 42C428.7 42.3 471.3 37.7 514.2 36C557 34.3 600 35.7 642.8 36C685.7 36.3 728.3 35.7 771.2 34.5C814 33.3 857 31.7 878.5 30.8L900 30L900 0L878.5 0C857 0 814 0 771.2 0C728.3 0 685.7 0 642.8 0C600 0 557 0 514.2 0C471.3 0 428.7 0 385.8 0C343 0 300 0 257.2 0C214.3 0 171.7 0 128.8 0C86 0 43 0 21.5 0L0 0Z" fill="#9bb2db"></path><path d="M0 24L21.5 24.8C43 25.7 86 27.3 128.8 28.5C171.7 29.7 214.3 30.3 257.2 29.3C300 28.3 343 25.7 385.8 26.8C428.7 28 471.3 33 514.2 32.8C557 32.7 600 27.3 642.8 24.7C685.7 22 728.3 22 771.2 22.3C814 22.7 857 23.3 878.5 23.7L900 24L900 0L878.5 0C857 0 814 0 771.2 0C728.3 0 685.7 0 642.8 0C600 0 557 0 514.2 0C471.3 0 428.7 0 385.8 0C343 0 300 0 257.2 0C214.3 0 171.7 0 128.8 0C86 0 43 0 21.5 0L0 0Z" fill="#81a0d2"></path><path d="M0 16L21.5 15.8C43 15.7 86 15.3 128.8 16C171.7 16.7 214.3 18.3 257.2 20.3C300 22.3 343 24.7 385.8 24.8C428.7 25 471.3 23 514.2 21C557 19 600 17 642.8 17.7C685.7 18.3 728.3 21.7 771.2 22.5C814 23.3 857 21.7 878.5 20.8L900 20L900 0L878.5 0C857 0 814 0 771.2 0C728.3 0 685.7 0 642.8 0C600 0 557 0 514.2 0C471.3 0 428.7 0 385.8 0C343 0 300 0 257.2 0C214.3 0 171.7 0 128.8 0C86 0 43 0 21.5 0L0 0Z" fill="#648ec9"></path><path d="M0 21L21.5 19.8C43 18.7 86 16.3 128.8 15.5C171.7 14.7 214.3 15.3 257.2 16.3C300 17.3 343 18.7 385.8 18.8C428.7 19 471.3 18 514.2 16.3C557 14.7 600 12.3 642.8 12.5C685.7 12.7 728.3 15.3 771.2 17.2C814 19 857 20 878.5 20.5L900 21L900 0L878.5 0C857 0 814 0 771.2 0C728.3 0 685.7 0 642.8 0C600 0 557 0 514.2 0C471.3 0 428.7 0 385.8 0C343 0 300 0 257.2 0C214.3 0 171.7 0 128.8 0C86 0 43 0 21.5 0L0 0Z" fill="#437dc0"></path><path d="M0 5L21.5 5C43 5 86 5 128.8 6.3C171.7 7.7 214.3 10.3 257.2 10.3C300 10.3 343 7.7 385.8 7.5C428.7 7.3 471.3 9.7 514.2 9.5C557 9.3 600 6.7 642.8 6.8C685.7 7 728.3 10 771.2 11.2C814 12.3 857 11.7 878.5 11.3L900 11L900 0L878.5 0C857 0 814 0 771.2 0C728.3 0 685.7 0 642.8 0C600 0 557 0 514.2 0C471.3 0 428.7 0 385.8 0C343 0 300 0 257.2 0C214.3 0 171.7 0 128.8 0C86 0 43 0 21.5 0L0 0Z" fill="#006cb7"></path></svg>