<svg id="visual" viewBox="0 0 900 100" width="900" height="100" xmlns="http://www.w3.org/2000/svg" xmlns:xlink="http://www.w3.org/1999/xlink" version="1.1"><rect x="0" y="0" width="900" height="100" fill="#f7f7f7"></rect><path d="M0 30L16.7 31C33.3 32 66.7 34 100 39.3C133.3 44.7 166.7 53.3 200 53C233.3 52.7 266.7 43.3 300 45.3C333.3 47.3 366.7 60.7 400 65.8C433.3 71 466.7 68 500 64.5C533.3 61 566.7 57 600 55.2C633.3 53.3 666.7 53.7 700 54.7C733.3 55.7 766.7 57.3 800 56.8C833.3 56.3 866.7 53.7 883.3 52.3L900 51L900 0L883.3 0C866.7 0 833.3 0 800 0C766.7 0 733.3 0 700 0C666.7 0 633.3 0 600 0C566.7 0 533.3 0 500 0C466.7 0 433.3 0 400 0C366.7 0 333.3 0 300 0C266.7 0 233.3 0 200 0C166.7 0 133.3 0 100 0C66.7 0 33.3 0 16.7 0L0 0Z" fill="#b7c5e7"></path><path d="M0 36L16.7 40.3C33.3 44.7 66.7 53.3 100 53.3C133.3 53.3 166.7 44.7 200 42.8C233.3 41 266.7 46 300 49.7C333.3 53.3 366.7 55.7 400 55C433.3 54.3 466.7 50.7 500 49.8C533.3 49 566.7 51 600 47.3C633.3 43.7 666.7 34.3 700 32.2C733.3 30 766.7 35 800 37.3C833.3 39.7 866.7 39.3 883.3 39.2L900 39L900 0L883.3 0C866.7 0 833.3 0 800 0C766.7 0 733.3 0 700 0C666.7 0 633.3 0 600 0C566.7 0 533.3 0 500 0C466.7 0 433.3 0 400 0C366.7 0 333.3 0 300 0C266.7 0 233.3 0 200 0C166.7 0 133.3 0 100 0C66.7 0 33.3 0 16.7 0L0 0Z" fill="#97aedb"></path><path d="M0 48L16.7 44.7C33.3 41.3 66.7 34.7 100 33C133.3 31.3 166.7 34.7 200 34.5C233.3 34.3 266.7 30.7 300 30.8C333.3 31 366.7 35 400 34.8C433.3 34.7 466.7 30.3 500 29.3C533.3 28.3 566.7 30.7 600 33.2C633.3 35.7 666.7 38.3 700 40.5C733.3 42.7 766.7 44.3 800 44C833.3 43.7 866.7 41.3 883.3 40.2L900 39L900 0L883.3 0C866.7 0 833.3 0 800 0C766.7 0 733.3 0 700 0C666.7 0 633.3 0 600 0C566.7 0 533.3 0 500 0C466.7 0 433.3 0 400 0C366.7 0 333.3 0 300 0C266.7 0 233.3 0 200 0C166.7 0 133.3 0 100 0C66.7 0 33.3 0 16.7 0L0 0Z" fill="#7597cf"></path><path d="M0 35L16.7 34.2C33.3 33.3 66.7 31.7 100 30.5C133.3 29.3 166.7 28.7 200 27C233.3 25.3 266.7 22.7 300 23.7C333.3 24.7 366.7 29.3 400 29.5C433.3 29.7 466.7 25.3 500 22.8C533.3 20.3 566.7 19.7 600 20.3C633.3 21 666.7 23 700 25.5C733.3 28 766.7 31 800 29.5C833.3 28 866.7 22 883.3 19L900 16L900 0L883.3 0C866.7 0 833.3 0 800 0C766.7 0 733.3 0 700 0C666.7 0 633.3 0 600 0C566.7 0 533.3 0 500 0C466.7 0 433.3 0 400 0C366.7 0 333.3 0 300 0C266.7 0 233.3 0 200 0C166.7 0 133.3 0 100 0C66.7 0 33.3 0 16.7 0L0 0Z" fill="#4e81c3"></path><path d="M0 14L16.7 15.7C33.3 17.3 66.7 20.7 100 20.3C133.3 20 166.7 16 200 15C233.3 14 266.7 16 300 16.3C333.3 16.7 366.7 15.3 400 15.7C433.3 16 466.7 18 500 18.7C533.3 19.3 566.7 18.7 600 18.5C633.3 18.3 666.7 18.7 700 18.7C733.3 18.7 766.7 18.3 800 18.5C833.3 18.7 866.7 19.3 883.3 19.7L900 20L900 0L883.3 0C866.7 0 833.3 0 800 0C766.7 0 733.3 0 700 0C666.7 0 633.3 0 600 0C566.7 0 533.3 0 500 0C466.7 0 433.3 0 400 0C366.7 0 333.3 0 300 0C266.7 0 233.3 0 200 0C166.7 0 133.3 0 100 0C66.7 0 33.3 0 16.7 0L0 0Z" fill="#006cb7"></path></svg>