<svg id="visual" viewBox="0 0 900 100" width="900" height="100" xmlns="http://www.w3.org/2000/svg" xmlns:xlink="http://www.w3.org/1999/xlink" version="1.1"><rect x="0" y="0" width="900" height="100" fill="#f7f7f7"></rect><path d="M0 68L16.7 67C33.3 66 66.7 64 100 58.7C133.3 53.3 166.7 44.7 200 45C233.3 45.3 266.7 54.7 300 52.7C333.3 50.7 366.7 37.3 400 32.2C433.3 27 466.7 30 500 33.5C533.3 37 566.7 41 600 42.8C633.3 44.7 666.7 44.3 700 43.3C733.3 42.3 766.7 40.7 800 41.2C833.3 41.7 866.7 44.3 883.3 45.7L900 47L900 101L883.3 101C866.7 101 833.3 101 800 101C766.7 101 733.3 101 700 101C666.7 101 633.3 101 600 101C566.7 101 533.3 101 500 101C466.7 101 433.3 101 400 101C366.7 101 333.3 101 300 101C266.7 101 233.3 101 200 101C166.7 101 133.3 101 100 101C66.7 101 33.3 101 16.7 101L0 101Z" fill="#b7c5e7"></path><path d="M0 62L16.7 57.7C33.3 53.3 66.7 44.7 100 44.7C133.3 44.7 166.7 53.3 200 55.2C233.3 57 266.7 52 300 48.3C333.3 44.7 366.7 42.3 400 43C433.3 43.7 466.7 47.3 500 48.2C533.3 49 566.7 47 600 50.7C633.3 54.3 666.7 63.7 700 65.8C733.3 68 766.7 63 800 60.7C833.3 58.3 866.7 58.7 883.3 58.8L900 59L900 101L883.3 101C866.7 101 833.3 101 800 101C766.7 101 733.3 101 700 101C666.7 101 633.3 101 600 101C566.7 101 533.3 101 500 101C466.7 101 433.3 101 400 101C366.7 101 333.3 101 300 101C266.7 101 233.3 101 200 101C166.7 101 133.3 101 100 101C66.7 101 33.3 101 16.7 101L0 101Z" fill="#97aedb"></path><path d="M0 50L16.7 53.3C33.3 56.7 66.7 63.3 100 65C133.3 66.7 166.7 63.3 200 63.5C233.3 63.7 266.7 67.3 300 67.2C333.3 67 366.7 63 400 63.2C433.3 63.3 466.7 67.7 500 68.7C533.3 69.7 566.7 67.3 600 64.8C633.3 62.3 666.7 59.7 700 57.5C733.3 55.3 766.7 53.7 800 54C833.3 54.3 866.7 56.7 883.3 57.8L900 59L900 101L883.3 101C866.7 101 833.3 101 800 101C766.7 101 733.3 101 700 101C666.7 101 633.3 101 600 101C566.7 101 533.3 101 500 101C466.7 101 433.3 101 400 101C366.7 101 333.3 101 300 101C266.7 101 233.3 101 200 101C166.7 101 133.3 101 100 101C66.7 101 33.3 101 16.7 101L0 101Z" fill="#7597cf"></path><path d="M0 63L16.7 63.8C33.3 64.7 66.7 66.3 100 67.5C133.3 68.7 166.7 69.3 200 71C233.3 72.7 266.7 75.3 300 74.3C333.3 73.3 366.7 68.7 400 68.5C433.3 68.3 466.7 72.7 500 75.2C533.3 77.7 566.7 78.3 600 77.7C633.3 77 666.7 75 700 72.5C733.3 70 766.7 67 800 68.5C833.3 70 866.7 76 883.3 79L900 82L900 101L883.3 101C866.7 101 833.3 101 800 101C766.7 101 733.3 101 700 101C666.7 101 633.3 101 600 101C566.7 101 533.3 101 500 101C466.7 101 433.3 101 400 101C366.7 101 333.3 101 300 101C266.7 101 233.3 101 200 101C166.7 101 133.3 101 100 101C66.7 101 33.3 101 16.7 101L0 101Z" fill="#4e81c3"></path><path d="M0 84L16.7 82.3C33.3 80.7 66.7 77.3 100 77.7C133.3 78 166.7 82 200 83C233.3 84 266.7 82 300 81.7C333.3 81.3 366.7 82.7 400 82.3C433.3 82 466.7 80 500 79.3C533.3 78.7 566.7 79.3 600 79.5C633.3 79.7 666.7 79.3 700 79.3C733.3 79.3 766.7 79.7 800 79.5C833.3 79.3 866.7 78.7 883.3 78.3L900 78L900 101L883.3 101C866.7 101 833.3 101 800 101C766.7 101 733.3 101 700 101C666.7 101 633.3 101 600 101C566.7 101 533.3 101 500 101C466.7 101 433.3 101 400 101C366.7 101 333.3 101 300 101C266.7 101 233.3 101 200 101C166.7 101 133.3 101 100 101C66.7 101 33.3 101 16.7 101L0 101Z" fill="#006cb7"></path></svg>